<mxfile host="app.diagrams.net" agent="Mozilla/5.0 (X11; Ubuntu; Linux x86_64; rv:140.0) Gecko/20100101 Firefox/140.0" version="27.2.0">
  <diagram name="Page-1" id="fL5NwA9nXsf1Jxdq_tHk">
    <mxGraphModel dx="627" dy="370" grid="1" gridSize="10" guides="1" tooltips="1" connect="1" arrows="1" fold="1" page="1" pageScale="1" pageWidth="850" pageHeight="1100" math="0" shadow="0">
      <root>
        <mxCell id="0" />
        <mxCell id="1" parent="0" />
        <mxCell id="JxzTHAmHGLf7EbBF13PF-1" value="" style="shape=mxgraph.networks2.icon;aspect=fixed;fillColor=#EDEDED;strokeColor=#000000;gradientColor=#5B6163;network2IconShadow=1;network2bgFillColor=none;network2Icon=mxgraph.networks2.laptop;network2IconW=1;network2IconH=0.5734;" vertex="1" parent="1">
          <mxGeometry x="220" y="348.91" width="50" height="28.67" as="geometry" />
        </mxCell>
        <mxCell id="JxzTHAmHGLf7EbBF13PF-3" value="" style="shape=mxgraph.networks2.icon;aspect=fixed;fillColor=#EDEDED;strokeColor=#000000;gradientColor=#5B6163;network2IconShadow=1;network2bgFillColor=none;network2Icon=mxgraph.networks2.globe;network2IconW=1;network2IconH=1;" vertex="1" parent="1">
          <mxGeometry x="560" y="337.62" width="50" height="50" as="geometry" />
        </mxCell>
        <mxCell id="JxzTHAmHGLf7EbBF13PF-4" value="" style="fillColorStyles=neutralFill;neutralFill=#9DA6A8;shape=mxgraph.networks2.icon;aspect=fixed;fillColor=#EDEDED;strokeColor=#000000;gradientColor=#5B6163;network2IconShadow=1;network2bgFillColor=none;network2Icon=mxgraph.networks2.router;network2IconXOffset=0.0001;network2IconYOffset=-0.1142;network2IconW=1;network2IconH=0.5485;" vertex="1" parent="1">
          <mxGeometry x="410" y="348.91" width="50" height="27.425" as="geometry" />
        </mxCell>
        <mxCell id="JxzTHAmHGLf7EbBF13PF-5" value="" style="endArrow=classic;html=1;rounded=0;" edge="1" parent="1">
          <mxGeometry width="50" height="50" relative="1" as="geometry">
            <mxPoint x="280" y="360" as="sourcePoint" />
            <mxPoint x="400" y="360" as="targetPoint" />
          </mxGeometry>
        </mxCell>
        <mxCell id="JxzTHAmHGLf7EbBF13PF-7" value="" style="endArrow=classic;html=1;rounded=0;" edge="1" parent="1">
          <mxGeometry width="50" height="50" relative="1" as="geometry">
            <mxPoint x="470" y="360" as="sourcePoint" />
            <mxPoint x="550" y="360" as="targetPoint" />
          </mxGeometry>
        </mxCell>
        <mxCell id="JxzTHAmHGLf7EbBF13PF-8" value="&lt;div&gt;Gratituous ARP Reply&lt;/div&gt;" style="text;strokeColor=none;align=center;fillColor=none;html=1;verticalAlign=middle;whiteSpace=wrap;rounded=0;" vertex="1" parent="1">
          <mxGeometry x="440" y="430" width="120" height="30" as="geometry" />
        </mxCell>
        <mxCell id="JxzTHAmHGLf7EbBF13PF-9" value="&lt;div&gt;&lt;font style=&quot;font-size: 8px;&quot;&gt;sender MAC: ba:ad:fo:od&lt;/font&gt;&lt;/div&gt;&lt;div&gt;&lt;font style=&quot;font-size: 8px;&quot;&gt;sender IP: &lt;span style=&quot;color: rgb(255, 0, 0);&quot;&gt;&lt;span style=&quot;color: generic-light-dark(transparent, rgb(255, 0, 0));&quot;&gt;&lt;span style=&quot;color: generic-light-dark(transparent, rgb(255, 0, 0));&quot;&gt;&lt;span style=&quot;color: generic-light-dark(transparent, rgb(255, 0, 0));&quot;&gt;&lt;span style=&quot;color: generic-light-dark(transparent, rgb(255, 0, 0));&quot;&gt;&lt;span style=&quot;color: rgba(0, 0, 0, 0);&quot;&gt;192.178.63.8&lt;/span&gt;&lt;/span&gt;&lt;/span&gt;&lt;/span&gt;&lt;/span&gt;&lt;/span&gt;&lt;/font&gt;&lt;/div&gt;" style="text;strokeColor=none;align=center;fillColor=none;html=1;verticalAlign=middle;whiteSpace=wrap;rounded=0;" vertex="1" parent="1">
          <mxGeometry x="430" y="450.15" width="110" height="42.38" as="geometry" />
        </mxCell>
        <mxCell id="JxzTHAmHGLf7EbBF13PF-10" value="&lt;div&gt;&lt;font style=&quot;font-size: 7px;&quot;&gt;MAC: de:ad:be:ef&lt;/font&gt;&lt;/div&gt;&lt;font style=&quot;font-size: 7px;&quot;&gt;IP: 192.178.63.8&lt;/font&gt;" style="text;strokeColor=none;align=center;fillColor=none;html=1;verticalAlign=middle;whiteSpace=wrap;rounded=0;" vertex="1" parent="1">
          <mxGeometry x="215" y="376.34" width="60" height="30" as="geometry" />
        </mxCell>
        <mxCell id="JxzTHAmHGLf7EbBF13PF-11" value="&lt;div&gt;&lt;font style=&quot;font-size: 7px;&quot;&gt;MAC: fa:ce:fe:ed&lt;/font&gt;&lt;/div&gt;&lt;font style=&quot;font-size: 7px;&quot;&gt;IP: 192.178.63.1&lt;/font&gt;" style="text;strokeColor=none;align=center;fillColor=none;html=1;verticalAlign=middle;whiteSpace=wrap;rounded=0;" vertex="1" parent="1">
          <mxGeometry x="405" y="376.96" width="60" height="30" as="geometry" />
        </mxCell>
        <mxCell id="JxzTHAmHGLf7EbBF13PF-12" value="" style="shape=mxgraph.networks2.icon;aspect=fixed;fillColor=#fad9d5;strokeColor=#ae4132;network2IconShadow=1;network2bgFillColor=none;network2Icon=mxgraph.networks2.laptop;network2IconW=1;network2IconH=0.5734;" vertex="1" parent="1">
          <mxGeometry x="410" y="521" width="50" height="28.67" as="geometry" />
        </mxCell>
        <mxCell id="JxzTHAmHGLf7EbBF13PF-13" value="" style="endArrow=classic;html=1;rounded=0;" edge="1" parent="1" target="JxzTHAmHGLf7EbBF13PF-11">
          <mxGeometry width="50" height="50" relative="1" as="geometry">
            <mxPoint x="435" y="510" as="sourcePoint" />
            <mxPoint x="505" y="400" as="targetPoint" />
          </mxGeometry>
        </mxCell>
        <mxCell id="JxzTHAmHGLf7EbBF13PF-14" value="&lt;div&gt;&lt;font style=&quot;font-size: 7px;&quot;&gt;MAC: ba:ad:fo:od&lt;/font&gt;&lt;/div&gt;&lt;font style=&quot;font-size: 7px;&quot;&gt;IP: 192.178.63.4&lt;/font&gt;" style="text;strokeColor=none;align=center;fillColor=none;html=1;verticalAlign=middle;whiteSpace=wrap;rounded=0;" vertex="1" parent="1">
          <mxGeometry x="405" y="550" width="60" height="30" as="geometry" />
        </mxCell>
        <mxCell id="JxzTHAmHGLf7EbBF13PF-15" value="" style="endArrow=classic;html=1;rounded=0;" edge="1" parent="1">
          <mxGeometry width="50" height="50" relative="1" as="geometry">
            <mxPoint x="400" y="510" as="sourcePoint" />
            <mxPoint x="280" y="380" as="targetPoint" />
          </mxGeometry>
        </mxCell>
        <mxCell id="JxzTHAmHGLf7EbBF13PF-17" value="&lt;div&gt;Gratituous ARP Reply&lt;/div&gt;" style="text;strokeColor=none;align=center;fillColor=none;html=1;verticalAlign=middle;whiteSpace=wrap;rounded=0;" vertex="1" parent="1">
          <mxGeometry x="210" y="430" width="120" height="30" as="geometry" />
        </mxCell>
        <mxCell id="JxzTHAmHGLf7EbBF13PF-18" value="&lt;div&gt;&lt;font style=&quot;font-size: 8px;&quot;&gt;sender MAC: ba:ad:fo:od&lt;/font&gt;&lt;/div&gt;&lt;div&gt;&lt;font style=&quot;font-size: 8px;&quot;&gt;sender IP: 192.178.63.1&lt;/font&gt;&lt;/div&gt;" style="text;strokeColor=none;align=center;fillColor=none;html=1;verticalAlign=middle;whiteSpace=wrap;rounded=0;" vertex="1" parent="1">
          <mxGeometry x="200" y="450.15" width="110" height="42.38" as="geometry" />
        </mxCell>
        <mxCell id="JxzTHAmHGLf7EbBF13PF-21" value="" style="verticalLabelPosition=bottom;verticalAlign=top;html=1;shape=mxgraph.basic.x;strokeColor=none;fillColor=#FF0000;" vertex="1" parent="1">
          <mxGeometry x="320" y="345.21" width="30" height="31.75" as="geometry" />
        </mxCell>
      </root>
    </mxGraphModel>
  </diagram>
</mxfile>
